<?xml version="1.0" standalone="no"?>
<!DOCTYPE svg PUBLIC "-//W3C//DTD SVG 20010904//EN"
 "http://www.w3.org/TR/2001/REC-SVG-20010904/DTD/svg10.dtd">
<svg version="1.0" xmlns="http://www.w3.org/2000/svg"
 width="720.000000pt" height="720.000000pt" viewBox="0 0 720.000000 720.000000"
 preserveAspectRatio="xMidYMid meet">
<metadata>
Created by potrace 1.14, written by Peter Selinger 2001-2017
</metadata>
<g transform="translate(0.000000,720.000000) scale(0.100000,-0.100000)"
fill="#000000" stroke="none">
<path d="M2444 5658 c-116 -129 -213 -285 -249 -401 -14 -44 -23 -82 -21 -85
3 -2 33 24 66 59 108 113 199 268 238 407 11 39 19 72 17 72 -2 0 -24 -24 -51
-52z"/>
<path d="M2112 5363 c-33 -99 -52 -199 -52 -268 l1 -60 23 48 c46 93 78 273
59 325 -8 20 -12 15 -31 -45z"/>
<path d="M2424 5347 c-64 -48 -159 -145 -150 -154 10 -10 91 45 149 103 99 99
99 124 1 51z"/>
<path d="M2975 5209 c-321 -19 -532 -75 -790 -213 l-100 -53 2 -39 c2 -21 16
-59 31 -84 32 -52 98 -95 122 -79 13 8 13 11 0 22 -21 16 -63 77 -54 77 3 0
24 -16 46 -35 l39 -36 42 27 c23 14 80 44 126 66 l83 40 -48 52 -49 51 52 -49
53 -50 67 23 c38 13 78 30 90 37 26 16 45 19 23 3 -12 -8 -9 -9 10 -4 92 24
179 38 270 45 l105 7 -96 2 c-52 0 -121 -4 -153 -10 -32 -6 -60 -8 -64 -5 -15
16 124 50 249 61 l66 6 10 57 c6 31 14 65 18 75 4 9 3 16 -1 16 -5 -1 -72 -6
-149 -10z"/>
<path d="M3196 5188 c-21 -32 -31 -135 -17 -170 14 -37 46 -39 37 -2 -8 30 1
67 15 58 5 -3 7 -9 4 -14 -2 -4 0 -21 6 -38 11 -31 57 -51 70 -30 4 7 9 7 13
0 3 -6 32 -16 64 -22 95 -20 253 -75 343 -120 90 -46 197 -114 215 -138 7 -10
13 -11 17 -5 8 13 -113 98 -200 142 -35 17 -63 33 -63 35 0 18 135 -42 257
-114 l52 -31 31 42 c34 48 37 67 13 76 -10 4 -58 35 -108 69 -111 77 -258 151
-391 197 -85 30 -144 45 -321 84 -15 4 -26 -2 -37 -19z m459 -148 c-10 -11
-23 -20 -29 -20 -6 1 0 10 13 20 30 26 39 26 16 0z"/>
<path d="M1993 4866 c-4 -8 -45 -47 -91 -86 -158 -137 -296 -315 -396 -510
-48 -94 -79 -174 -126 -324 -37 -116 -33 -134 29 -166 64 -32 199 -24 223 13
14 23 8 27 -39 27 -57 0 -93 9 -93 22 0 5 29 8 64 7 35 -1 68 1 73 4 6 4 13
26 16 49 16 117 115 337 221 493 33 49 104 134 157 187 52 54 89 98 82 98 -15
0 -175 -156 -237 -230 l-38 -45 28 50 c33 60 95 143 165 219 l51 56 -37 75
c-20 41 -38 75 -40 75 -2 0 -8 -6 -12 -14z m-105 -201 c-3 -4 -16 9 -28 27
l-23 33 28 -27 c16 -15 26 -30 23 -33z m-372 -497 l29 -33 -32 29 c-31 28 -38
36 -30 36 2 0 16 -15 33 -32z"/>
<path d="M2183 4306 c-99 -51 -168 -103 -252 -186 -54 -54 -141 -168 -141
-184 0 -10 72 26 140 70 36 22 97 71 137 108 72 67 209 224 202 231 -2 2 -41
-16 -86 -39z"/>
<path d="M1905 4249 c-43 -46 -116 -179 -115 -211 1 -23 76 70 113 140 36 68
59 122 53 122 -2 0 -25 -23 -51 -51z"/>
<path d="M1965 3940 c-85 -17 -190 -64 -255 -113 l-25 -19 55 7 c67 9 184 53
265 100 54 31 57 34 30 34 -16 -1 -48 -5 -70 -9z"/>
<path d="M1339 3724 c-1 -5 0 -13 1 -19 1 -5 1 -83 0 -172 -2 -384 88 -692
299 -1013 31 -47 61 -94 67 -105 17 -30 65 -30 122 -1 85 43 166 162 141 208
-11 21 -12 20 -45 -19 -36 -43 -84 -80 -84 -64 0 5 18 31 40 56 22 25 40 51
40 56 0 5 -24 41 -54 80 -46 61 -159 269 -180 334 -5 14 -9 16 -15 6 -12 -18
-157 -168 -173 -177 -7 -4 29 36 80 90 50 53 92 104 92 114 0 9 -7 37 -16 61
-26 77 -55 273 -57 392 -2 119 -11 144 -23 64 -5 -38 6 -234 21 -355 3 -23 -4
-11 -19 35 -24 70 -40 164 -51 308 -6 64 -10 77 -24 77 -16 0 -91 24 -143 45
-10 4 -19 3 -19 -1z"/>
<path d="M4891 3545 c-132 -30 -178 -50 -280 -126 -38 -28 -39 -43 -7 -197 13
-64 27 -141 31 -171 l7 -54 -28 20 c-16 11 -45 25 -65 32 -20 6 -47 23 -59 36
-28 30 -43 31 -78 5 -15 -11 -38 -22 -51 -25 -60 -11 -55 -57 7 -66 23 -3 50
-14 60 -24 16 -17 16 -17 -8 -11 -90 26 -109 21 -133 -38 -17 -40 -102 -183
-117 -196 -3 -3 -47 -54 -97 -115 -87 -106 -210 -225 -279 -272 -69 -47 -242
-133 -332 -164 -57 -19 -90 -35 -84 -41 25 -25 293 79 420 163 26 17 32 18 32
5 0 -17 -74 -69 -193 -137 l-79 -44 93 -87 c51 -49 89 -88 84 -88 -6 0 -49 39
-96 86 l-87 86 -79 -32 -80 -31 1 -120 c1 -65 5 -119 10 -119 5 0 17 6 25 14
9 8 53 24 99 36 74 18 116 33 217 73 320 129 632 398 820 706 43 71 22 68 260
46 283 -26 363 -20 417 32 28 27 45 80 34 108 -5 14 -9 14 -33 1 -60 -31 -146
-39 -338 -31 -167 6 -186 9 -179 24 4 9 9 53 12 98 4 88 -19 223 -60 355 -17
54 -19 70 -9 82 7 8 51 29 99 46 102 37 268 54 288 29 22 -27 76 -283 81 -386
l6 -103 -32 -6 c-42 -9 -38 -33 11 -59 50 -27 83 -12 99 47 16 62 6 217 -21
326 -28 109 -94 248 -131 275 -35 25 -100 30 -178 12z m-660 -1222 c13 -16 12
-17 -3 -4 -10 7 -18 15 -18 17 0 8 8 3 21 -13z"/>
<path d="M2070 3472 c-45 -48 -72 -103 -73 -149 -1 -43 35 -79 89 -89 27 -5
34 -10 29 -23 -60 -153 -98 -431 -60 -431 33 0 82 59 98 117 23 83 47 219 47
263 l0 38 76 4 c69 3 79 6 100 31 13 16 24 34 24 42 0 17 -68 38 -176 56 -44
6 -80 13 -81 14 -2 1 6 19 17 40 54 106 -12 169 -90 87z"/>
<path d="M2506 3409 c-35 -27 -56 -70 -56 -112 0 -61 21 -74 171 -107 140 -31
236 -38 270 -20 42 23 13 110 -37 110 -10 0 -74 12 -141 27 -113 25 -123 29
-123 49 0 39 -18 74 -38 74 -11 0 -31 -9 -46 -21z"/>
<path d="M4831 3381 c-6 -10 -30 -31 -55 -45 -35 -21 -43 -30 -39 -47 5 -19
11 -20 50 -14 42 6 44 5 41 -16 -2 -15 -14 -26 -35 -33 -18 -6 -43 -21 -55
-33 -21 -22 -21 -24 -5 -40 15 -16 25 -15 154 17 140 35 183 57 183 96 0 15
-8 16 -57 10 -31 -4 -67 -9 -80 -12 -36 -9 -30 33 9 66 23 19 30 32 25 45 -6
14 -15 17 -51 13 -24 -3 -51 -1 -59 4 -12 6 -19 3 -26 -11z"/>
<path d="M4393 3350 c-12 -5 -24 -19 -28 -31 -6 -19 -1 -29 26 -51 40 -34 97
-38 122 -10 25 27 21 47 -14 76 -31 26 -66 32 -106 16z"/>
<path d="M3724 3322 c-6 -4 -19 -22 -28 -39 -16 -32 -18 -33 -86 -33 -66 0
-72 2 -98 31 -32 35 -55 32 -78 -12 -8 -17 -25 -31 -42 -35 -95 -20 -228 -56
-236 -64 -14 -14 3 -59 30 -76 23 -16 32 -16 124 0 120 19 130 20 130 3 0 -22
36 -49 61 -45 15 2 26 14 34 38 l12 35 71 3 c64 3 72 1 72 -16 0 -10 7 -27 15
-38 23 -30 19 -34 -41 -34 -75 0 -185 -18 -252 -41 -65 -22 -139 -76 -144
-104 -3 -11 3 -73 12 -137 29 -197 53 -218 255 -218 72 0 173 -7 225 -14 83
-13 98 -13 117 0 30 19 45 49 38 76 -3 13 1 42 9 65 21 60 50 257 42 288 -9
35 -95 75 -175 82 l-59 6 32 41 c30 41 33 42 78 38 77 -7 135 6 173 40 19 16
35 34 35 38 0 4 -51 13 -112 20 -116 12 -138 20 -138 49 0 20 -36 61 -53 61
-7 0 -17 -4 -23 -8z m128 -410 c6 -6 7 -28 3 -52 -6 -33 -10 -40 -23 -34 -10
3 -52 9 -94 12 l-78 5 0 45 0 45 91 -6 c51 -3 96 -10 101 -15z m-287 -29 c-3
-21 -10 -41 -13 -44 -12 -12 -147 -38 -154 -31 -4 4 -10 22 -14 39 -6 32 -6
32 52 48 33 9 64 18 69 20 6 2 23 4 39 4 27 1 28 0 21 -36z m-18 -192 l10 -48
-46 -11 c-25 -6 -53 -13 -62 -17 -13 -5 -18 4 -23 46 -4 28 -5 53 -3 55 4 4
78 20 103 23 6 1 16 -21 21 -48z m279 -1 c-3 -24 -10 -47 -14 -50 -4 -3 -39
-4 -79 -2 l-71 4 5 36 c8 63 6 61 88 59 l77 -2 -6 -45z"/>
<path d="M2596 3118 c-8 -13 -29 -75 -46 -138 -36 -134 -53 -171 -92 -211 -29
-29 -71 -38 -83 -19 -13 22 -35 10 -35 -19 0 -73 125 -109 200 -58 90 61 150
211 150 378 0 73 -61 117 -94 67z"/>
<path d="M4875 3121 c-22 -10 -46 -25 -54 -34 -18 -22 -10 -116 12 -151 16
-24 24 -26 83 -26 76 0 98 9 120 52 26 51 1 139 -47 164 -37 19 -65 17 -114
-5z m100 -85 c12 -36 -3 -60 -43 -64 -22 -2 -32 2 -35 15 -3 10 -8 28 -12 40
-5 19 -1 24 27 32 44 12 51 9 63 -23z"/>
<path d="M2049 2485 c-3 -15 11 -33 56 -69 80 -65 208 -149 286 -187 62 -30
63 -31 24 -25 -49 6 -219 92 -336 169 -48 31 -91 57 -94 57 -4 0 -23 -14 -42
-30 -18 -17 -57 -42 -86 -56 l-52 -27 23 -16 c13 -9 65 -50 115 -92 275 -227
556 -355 890 -403 56 -8 178 -16 270 -18 158 -3 170 -2 183 17 54 73 33 244
-39 323 -25 27 -73 31 -62 5 19 -44 35 -120 30 -140 -9 -36 -25 -27 -25 15 0
20 -9 56 -20 80 l-19 42 -150 0 c-152 0 -304 21 -401 55 l-40 14 -111 -112
c-61 -62 -104 -101 -96 -88 9 13 54 63 101 111 47 48 86 90 86 93 0 2 -11 8
-25 11 -38 10 -131 53 -210 99 -83 47 -242 163 -248 180 -2 7 -6 3 -8 -8z"/>
<path d="M2740 1720 c-65 -9 -129 -26 -150 -40 -27 -18 223 -12 301 7 38 9 66
20 62 24 -13 12 -153 18 -213 9z"/>
<path d="M3178 1655 c-42 -24 -105 -73 -141 -108 -62 -61 -141 -166 -132 -175
9 -9 174 110 235 170 66 65 138 158 123 158 -5 0 -43 -20 -85 -45z"/>
<path d="M2963 1649 c-201 -34 -410 -125 -564 -248 -62 -49 -54 -51 91 -16
255 61 484 164 564 254 19 21 19 21 -10 20 -16 -1 -53 -5 -81 -10z m-212 -132
c-10 -9 -11 -8 -5 6 3 10 9 15 12 12 3 -3 0 -11 -7 -18z"/>
</g>
</svg>
